<svg width="34" height="36" viewBox="0 0 34 36" fill="none" xmlns="http://www.w3.org/2000/svg">
<path d="M21.4829 29.3364L13.7352 22.9881L16.9933 19.0118L29.5175 29.2737L21.4829 29.3364Z" fill="white"/>
<path d="M14.8286 34.5317L8.51531 29.3587L29.5175 29.2737L25.209 34.532L14.8286 34.5317Z" fill="white"/>
<path d="M4.48254 29.9709L8.33787 25.2656L19.6556 34.5319L10.0679 34.5474L4.48254 29.9709Z" fill="white"/>
<path d="M7.1646 17.6044L11.6224 21.257L27.975 1.29956H20.3844L7.1646 17.6044Z" fill="white"/>
<path d="M13.7352 22.9881L18.454 26.8546L28.26 14.887H20.3688L13.7352 22.9881Z" fill="white"/>
<path d="M13.7199 22.9996L16.9927 19.0052L21.7091 22.8697L18.4363 26.864L13.7199 22.9996Z" fill="white"/>
<path d="M18.4363 26.864L21.7091 22.8697L23.3215 24.1909L18.4363 26.864Z" fill="white"/>
</svg>
